<svg version="1.1" id="Layer_1" xmlns="http://www.w3.org/2000/svg" xmlns:xlink="http://www.w3.org/1999/xlink" x="0px" y="0px"
	 width="100%" viewBox="0 0 500 500" enable-background="new 0 0 500 500" xml:space="preserve">
<path fill="#1B1B1B" opacity="1.000000" stroke="none" 
	d="
M1.000000,484.000000 
	C1.000000,328.975922 1.000000,173.951843 1.319073,18.322721 
	C4.802581,8.898193 11.076452,3.493960 20.000000,1.000000 
	C174.024078,1.000000 328.048157,1.000000 482.679810,1.331309 
	C492.752533,3.803695 497.517517,10.746733 501.000000,19.000000 
	C501.000000,173.690750 501.000000,328.381500 500.674011,483.658142 
	C497.399567,492.763672 491.097870,497.811676 483.000000,501.000000 
	C328.309265,501.000000 173.618515,501.000000 18.334976,500.674561 
	C9.508681,497.615936 4.636303,491.440887 1.000000,484.000000 
M280.500000,450.001526 
	C314.492188,449.666992 348.484894,449.373901 382.476318,448.974823 
	C394.008606,448.839417 403.744537,442.019287 405.104675,431.037140 
	C406.432068,420.319122 405.393311,409.308075 405.393311,398.185272 
	C394.463928,398.185272 384.416748,398.185272 374.244965,398.185272 
	C374.244965,383.972046 374.244965,370.230072 374.244965,356.629242 
	C379.669464,356.086700 385.070129,356.496857 389.781555,354.888306 
	C401.564545,350.865417 406.833099,339.870667 404.278290,326.629456 
	C402.062286,315.144226 392.817871,307.849152 380.601654,308.022614 
	C359.107483,308.327789 337.612976,308.628510 316.121124,309.057190 
	C313.686401,309.105743 311.106873,309.579132 308.869629,310.513977 
	C299.050995,314.616791 295.426941,321.694641 294.714905,332.914825 
	C293.777008,347.694855 306.771423,358.643005 319.003510,357.044708 
	C321.223145,356.754700 323.513184,357.003418 326.075348,357.003418 
	C326.075348,371.314148 326.075348,384.909668 326.075348,398.417664 
	C325.581818,398.657379 325.292633,398.918610 324.999756,398.922852 
	C299.508362,399.289612 274.016602,399.871887 248.524963,399.869843 
	C238.234467,399.869019 229.073029,389.937469 228.922806,379.495453 
	C228.486572,349.172241 228.246994,318.846252 227.871826,288.522064 
	C227.803635,283.009705 230.040298,278.608429 233.606598,274.606323 
	C239.421738,268.080505 247.094223,267.469147 255.072144,267.394745 
	C302.728394,266.950256 350.384094,266.444061 398.040009,265.962158 
	C399.956146,265.942780 401.872681,265.959686 403.968048,265.959686 
	C403.968048,259.160950 404.219269,253.156708 403.915924,247.180603 
	C403.277954,234.612473 393.501343,225.496246 381.004211,225.603073 
	C328.347504,226.053207 275.690796,226.506256 223.034821,227.032013 
	C215.206711,227.110184 207.379166,227.517639 199.559067,227.921921 
	C197.783295,228.013702 195.897812,228.433121 194.304764,229.202621 
	C185.461853,233.474075 180.533752,240.126404 180.694473,250.442337 
	C181.229156,284.764038 181.508041,319.089661 181.881760,353.413849 
	C182.159317,378.905396 182.367065,404.398102 182.796295,429.887085 
	C182.844879,432.771667 183.618149,435.897125 184.932831,438.460938 
	C189.277954,446.934418 196.463608,451.054871 206.018524,450.935181 
	C230.512405,450.628357 255.006180,450.313416 280.500000,450.001526 
M163.345566,39.749958 
	C160.949188,42.487560 158.341278,45.069599 156.193542,47.990051 
	C147.517776,59.787205 149.295624,72.458946 160.898209,81.192543 
	C215.794495,122.514481 270.705750,163.816696 325.704834,205.001572 
	C328.670166,207.222122 332.328003,209.050064 335.925568,209.795013 
	C347.022949,212.092880 354.521942,206.533890 360.712036,197.845184 
	C368.991913,186.223267 367.707886,173.476700 356.363525,164.911789 
	C301.392273,123.408798 246.325180,82.032715 191.306198,40.592873 
	C182.440308,33.915150 173.350540,33.444454 163.345566,39.749958 
M158.110352,301.031982 
	C157.686386,290.564514 157.438293,280.086304 156.799805,269.631927 
	C155.664978,251.050629 154.220917,232.488373 153.042007,213.909531 
	C151.905136,195.993149 151.026169,178.060333 149.878052,160.144714 
	C148.336700,136.092682 146.583755,112.054169 145.059402,88.001122 
	C144.643143,81.432953 141.912216,76.255020 137.000946,72.054527 
	C129.925751,66.003273 121.760216,66.649216 113.331001,67.835258 
	C103.480064,69.221329 94.716537,78.284042 94.558685,88.120262 
	C94.478699,93.103676 94.801941,98.102737 95.133698,103.082016 
	C96.702705,126.631401 98.417351,150.171310 99.923332,173.724609 
	C101.090195,191.974075 101.917778,210.245270 103.090652,228.494308 
	C104.604477,252.048065 106.390503,275.584320 107.900024,299.138336 
	C108.558121,309.406982 115.099648,317.676941 125.083649,319.641571 
	C128.299561,320.274414 131.711075,320.027161 135.031326,319.995392 
	C147.229340,319.878784 154.874588,313.832367 158.110352,301.031982 
M188.325165,136.176163 
	C184.457184,133.734192 180.589218,131.292236 175.652771,128.175720 
	C175.652771,152.679184 175.652771,176.003952 175.652771,199.733231 
	C195.662598,189.008453 215.710953,178.263031 236.555618,167.090805 
	C220.194656,156.616776 204.556351,146.605392 188.325165,136.176163 
z"/>
<path fill="#6882EF" opacity="1.000000" stroke="none" 
	d="
M501.000000,18.530293 
	C497.517517,10.746733 492.752533,3.803695 483.143677,1.331309 
	C488.925720,1.000000 494.851471,1.000000 501.000000,1.000000 
	C501.000000,6.684937 501.000000,12.372760 501.000000,18.530293 
z"/>
<path fill="#6881EE" opacity="1.000000" stroke="none" 
	d="
M483.469727,501.000000 
	C491.097870,497.811676 497.399567,492.763672 500.674011,484.122009 
	C501.000000,489.594482 501.000000,495.188995 501.000000,501.000000 
	C495.314392,501.000000 489.626923,501.000000 483.469727,501.000000 
z"/>
<path fill="#6881EE" opacity="1.000000" stroke="none" 
	d="
M19.530624,1.000000 
	C11.076452,3.493960 4.802581,8.898193 1.319073,17.858837 
	C1.000000,12.403369 1.000000,6.806738 1.000000,1.000000 
	C7.019274,1.000000 13.040261,1.000000 19.530624,1.000000 
z"/>
<path fill="#6882EF" opacity="1.000000" stroke="none" 
	d="
M1.000000,484.470459 
	C4.636303,491.440887 9.508681,497.615936 17.871090,500.674561 
	C12.407916,501.000000 6.815833,501.000000 1.000000,501.000000 
	C1.000000,495.649017 1.000000,490.294983 1.000000,484.470459 
z"/>
<path fill="#6A84F3" opacity="1.000000" stroke="none" 
	d="
M280.000000,450.001617 
	C255.006180,450.313416 230.512405,450.628357 206.018524,450.935181 
	C196.463608,451.054871 189.277954,446.934418 184.932831,438.460938 
	C183.618149,435.897125 182.844879,432.771667 182.796295,429.887085 
	C182.367065,404.398102 182.159317,378.905396 181.881760,353.413849 
	C181.508041,319.089661 181.229156,284.764038 180.694473,250.442337 
	C180.533752,240.126404 185.461853,233.474075 194.304764,229.202621 
	C195.897812,228.433121 197.783295,228.013702 199.559067,227.921921 
	C207.379166,227.517639 215.206711,227.110184 223.034821,227.032013 
	C275.690796,226.506256 328.347504,226.053207 381.004211,225.603073 
	C393.501343,225.496246 403.277954,234.612473 403.915924,247.180603 
	C404.219269,253.156708 403.968048,259.160950 403.968048,265.959686 
	C401.872681,265.959686 399.956146,265.942780 398.040009,265.962158 
	C350.384094,266.444061 302.728394,266.950256 255.072144,267.394745 
	C247.094223,267.469147 239.421738,268.080505 233.606598,274.606323 
	C230.040298,278.608429 227.803635,283.009705 227.871826,288.522064 
	C228.246994,318.846252 228.486572,349.172241 228.922806,379.495453 
	C229.073029,389.937469 238.234467,399.869019 248.524963,399.869843 
	C274.016602,399.871887 299.508362,399.289612 324.999756,398.922852 
	C325.292633,398.918610 325.581818,398.657379 326.075348,398.417664 
	C326.075348,384.909668 326.075348,371.314148 326.075348,357.003418 
	C323.513184,357.003418 321.223145,356.754700 319.003510,357.044708 
	C306.771423,358.643005 293.777008,347.694855 294.714905,332.914825 
	C295.426941,321.694641 299.050995,314.616791 308.869629,310.513977 
	C311.106873,309.579132 313.686401,309.105743 316.121124,309.057190 
	C337.612976,308.628510 359.107483,308.327789 380.601654,308.022614 
	C392.817871,307.849152 402.062286,315.144226 404.278290,326.629456 
	C406.833099,339.870667 401.564545,350.865417 389.781555,354.888306 
	C385.070129,356.496857 379.669464,356.086700 374.244965,356.629242 
	C374.244965,370.230072 374.244965,383.972046 374.244965,398.185272 
	C384.416748,398.185272 394.463928,398.185272 405.393311,398.185272 
	C405.393311,409.308075 406.432068,420.319122 405.104675,431.037140 
	C403.744537,442.019287 394.008606,448.839417 382.476318,448.974823 
	C348.484894,449.373901 314.492188,449.666992 280.000000,450.001617 
z"/>
<path fill="#6A84F3" opacity="1.000000" stroke="none" 
	d="
M163.639053,39.533745 
	C173.350540,33.444454 182.440308,33.915150 191.306198,40.592873 
	C246.325180,82.032715 301.392273,123.408798 356.363525,164.911789 
	C367.707886,173.476700 368.991913,186.223267 360.712036,197.845184 
	C354.521942,206.533890 347.022949,212.092880 335.925568,209.795013 
	C332.328003,209.050064 328.670166,207.222122 325.704834,205.001572 
	C270.705750,163.816696 215.794495,122.514481 160.898209,81.192543 
	C149.295624,72.458946 147.517776,59.787205 156.193542,47.990051 
	C158.341278,45.069599 160.949188,42.487560 163.639053,39.533745 
z"/>
<path fill="#6A84F3" opacity="1.000000" stroke="none" 
	d="
M158.069244,301.474518 
	C154.874588,313.832367 147.229340,319.878784 135.031326,319.995392 
	C131.711075,320.027161 128.299561,320.274414 125.083649,319.641571 
	C115.099648,317.676941 108.558121,309.406982 107.900024,299.138336 
	C106.390503,275.584320 104.604477,252.048065 103.090652,228.494308 
	C101.917778,210.245270 101.090195,191.974075 99.923332,173.724609 
	C98.417351,150.171310 96.702705,126.631401 95.133698,103.082016 
	C94.801941,98.102737 94.478699,93.103676 94.558685,88.120262 
	C94.716537,78.284042 103.480064,69.221329 113.331001,67.835258 
	C121.760216,66.649216 129.925751,66.003273 137.000946,72.054527 
	C141.912216,76.255020 144.643143,81.432953 145.059402,88.001122 
	C146.583755,112.054169 148.336700,136.092682 149.878052,160.144714 
	C151.026169,178.060333 151.905136,195.993149 153.042007,213.909531 
	C154.220917,232.488373 155.664978,251.050629 156.799805,269.631927 
	C157.438293,280.086304 157.686386,290.564514 158.069244,301.474518 
z"/>
<path fill="#6983F2" opacity="1.000000" stroke="none" 
	d="
M188.621613,136.385086 
	C204.556351,146.605392 220.194656,156.616776 236.555618,167.090805 
	C215.710953,178.263031 195.662598,189.008453 175.652771,199.733231 
	C175.652771,176.003952 175.652771,152.679184 175.652771,128.175720 
	C180.589218,131.292236 184.457184,133.734192 188.621613,136.385086 
z"/>
</svg>