<svg version="1.1" id="Layer_1" xmlns="http://www.w3.org/2000/svg" xmlns:xlink="http://www.w3.org/1999/xlink" x="0px" y="0px"
	 width="100%" viewBox="0 0 1000 1000" enable-background="new 0 0 1000 1000" xml:space="preserve">
<path fill="#000000" opacity="1.000000" stroke="none" 
	d="
M568.000000,1.000007 
	C712.317810,1.000000 856.635559,1.000000 1000.976685,1.000000 
	C1000.976685,334.281921 1000.976685,667.563843 1000.976685,1000.922852 
	C667.753967,1000.922852 334.507935,1000.922852 1.130951,1000.922852 
	C1.130951,667.789917 1.130951,334.579712 1.130951,1.000000 
	C145.027832,1.000000 289.055969,1.000000 433.905121,1.323097 
	C434.017365,2.421476 433.379089,3.785214 432.588776,3.879899 
	C425.635132,4.712996 418.643463,5.225806 411.685638,6.028994 
	C407.389252,6.524957 403.091949,7.176135 398.867645,8.092287 
	C393.715637,9.209641 388.664246,10.785008 383.523193,11.960568 
	C379.467621,12.887920 375.262756,13.224254 371.266510,14.335056 
	C365.330750,15.984961 359.517914,18.078453 353.657959,19.999043 
	C348.093994,21.822622 342.478302,23.508999 336.992004,25.543344 
	C330.745087,27.859726 324.609039,30.477041 318.437958,32.995701 
	C311.118225,35.983154 303.699677,38.761597 296.534302,42.084198 
	C290.120544,45.058258 284.010040,48.681973 277.734314,51.958920 
	C267.913574,57.086948 257.770538,61.673912 248.304214,67.385429 
	C236.069092,74.767502 224.229630,82.834412 212.474777,90.974609 
	C202.486984,97.891098 192.670380,105.090034 183.159683,112.644447 
	C178.789749,116.115524 175.999451,121.886757 171.323029,124.594894 
	C161.922333,130.038864 155.429398,138.439224 148.126434,145.816040 
	C135.844421,158.222229 124.621246,171.721222 113.475525,185.193085 
	C105.211380,195.181961 97.567902,205.708389 90.044388,216.277557 
	C84.947784,223.437363 80.440742,231.026703 75.852676,238.535553 
	C72.024178,244.801300 68.346191,251.166107 64.811241,257.602234 
	C60.885735,264.749451 57.099285,271.977631 53.437832,279.263794 
	C50.491230,285.127441 47.618156,291.045410 45.094658,297.098602 
	C43.193661,301.658569 42.125500,306.562561 40.276779,311.148193 
	C37.786968,317.323975 34.379704,323.168793 32.309528,329.465790 
	C29.091896,339.253082 26.683868,349.305725 23.904711,359.238098 
	C21.292845,368.572540 18.359184,377.828430 16.103342,387.247314 
	C14.313876,394.718964 13.288021,402.376862 12.009092,409.966522 
	C10.621247,418.202576 8.978571,426.417603 8.092776,434.710724 
	C7.035279,444.611389 6.371954,454.576447 6.071346,464.529724 
	C5.734405,475.686066 5.560503,486.881653 6.105813,498.021484 
	C6.765358,511.494995 4.336912,524.975220 7.704919,538.518860 
	C9.588936,546.095032 7.519267,554.352295 9.781458,562.334229 
	C11.521379,568.473328 11.221368,575.172852 12.053236,581.594055 
	C12.523304,585.222595 13.333881,588.819763 14.194799,592.381775 
	C15.358912,597.198181 16.828705,601.941467 17.959923,606.764832 
	C18.871510,610.651733 19.247223,614.671143 20.266935,618.524231 
	C22.007975,625.102905 23.959906,631.631531 26.021694,638.118042 
	C28.329336,645.377991 30.771873,652.598206 33.319668,659.777588 
	C35.068871,664.706604 37.146107,669.518250 38.980980,674.418274 
	C39.879898,676.818848 40.350567,679.393494 41.377949,681.729736 
	C45.170609,690.354187 48.988171,698.972473 53.043327,707.475281 
	C56.099308,713.883057 59.377350,720.197571 62.837502,726.396729 
	C67.040169,733.926208 71.514282,741.304932 75.913940,748.723389 
	C82.080101,759.120483 87.755463,769.860962 94.616707,779.779480 
	C102.220978,790.772034 110.566086,801.310120 119.248672,811.482666 
	C128.153091,821.915283 137.621841,831.898376 147.280045,841.645691 
	C155.658264,850.101135 164.503525,858.113037 173.405472,866.024963 
	C182.469467,874.080994 191.597473,882.108093 201.180634,889.523315 
	C208.857483,895.463562 217.209061,900.543274 225.350677,905.868042 
	C233.707748,911.333679 242.087250,916.775513 250.626556,921.947754 
	C255.125015,924.672485 260.065643,926.656372 264.663788,929.229919 
	C271.399384,932.999939 277.781494,937.470947 284.723969,940.784912 
	C294.151093,945.284973 303.910248,949.112610 313.630066,952.968994 
	C321.747314,956.189514 329.953308,959.213074 338.229034,962.000183 
	C346.804474,964.888123 355.502167,967.416016 364.165649,970.037720 
	C366.923492,970.872253 369.746948,971.488037 372.533539,972.229675 
	C379.737061,974.146790 386.888550,976.290833 394.153015,977.937500 
	C400.079895,979.280884 406.155762,979.952148 412.137451,981.071594 
	C422.368347,982.986145 432.509216,985.562744 442.814178,986.850952 
	C453.542847,988.192200 464.413239,988.671021 475.235748,988.923218 
	C489.561127,989.257141 503.909119,989.312439 518.230042,988.894165 
	C527.509094,988.623108 536.709473,989.816345 546.144592,987.326599 
	C556.519836,984.588745 567.530151,984.118286 578.303528,983.067688 
	C589.223389,982.002808 599.782043,979.767761 610.174866,976.169739 
	C616.190125,974.087097 622.669067,973.340393 628.942749,972.008911 
	C635.322205,970.654968 641.726746,969.411194 648.077881,967.936340 
	C650.834412,967.296265 653.522339,966.297424 656.174805,965.286804 
	C660.589478,963.604858 664.931641,961.733521 669.338318,960.029724 
	C676.395935,957.301147 683.556213,954.822693 690.528931,951.895142 
	C695.262573,949.907715 699.690796,947.205444 704.359741,945.048218 
	C712.877380,941.112610 721.634094,937.662659 729.988586,933.414978 
	C738.007141,929.338074 745.741394,924.668884 753.422852,919.969482 
	C765.208740,912.759277 777.138977,905.724243 788.448120,897.814392 
	C797.763733,891.298828 806.195007,883.529785 815.168030,876.507874 
	C818.395569,873.982178 822.884338,872.677124 825.327942,869.634705 
	C828.804077,865.306946 834.564270,863.004395 835.268005,855.907593 
	C836.272156,845.781677 836.759277,835.857422 836.254761,825.628235 
	C835.126160,802.748230 835.118225,779.802368 835.078491,756.882629 
	C835.048340,739.463928 835.955566,722.044189 835.962402,704.624756 
	C836.033264,523.960449 835.998901,343.296112 836.047180,162.631805 
	C836.048340,158.214035 836.869446,153.799240 836.929688,149.377914 
	C836.985046,145.318451 836.262695,141.245468 836.362122,137.190201 
	C836.497986,131.651093 834.255920,126.720093 830.828308,123.178932 
	C825.343811,117.512756 818.855408,112.769966 812.539001,107.968796 
	C803.125061,100.813141 793.588013,93.809555 783.922424,86.997986 
	C775.569519,81.111504 767.212524,75.159096 758.408020,70.003181 
	C747.356750,63.531620 735.891174,57.758228 724.522278,51.841362 
	C714.864014,46.814800 705.329956,41.435150 695.306763,37.252289 
	C681.854004,31.638264 668.026062,26.904465 654.269104,22.048220 
	C649.337219,20.307264 644.131470,19.351465 639.072510,17.958128 
	C634.478027,16.692713 629.948914,15.173632 625.324158,14.039131 
	C621.420044,13.081409 617.377930,12.687490 613.471375,11.737931 
	C606.072021,9.939401 598.804749,7.492156 591.334656,6.120631 
	C584.471069,4.860473 577.399902,4.761870 570.455872,3.872915 
	C569.529785,3.754366 568.813416,1.997944 568.000000,1.000007 
z"/>
<path fill="#6A85F4" opacity="1.000000" stroke="none" 
	d="
M475.000000,1.000000 
	C492.020905,1.000000 509.041779,1.000000 526.821472,1.290432 
	C528.402466,1.695397 529.221252,1.867570 530.047363,1.916197 
	C571.804443,4.374295 612.550598,12.183971 652.337341,25.045149 
	C718.212585,46.339527 777.032593,79.970718 828.673096,126.094299 
	C830.289246,127.537773 832.150146,129.667267 832.302856,131.602753 
	C832.705750,136.707336 832.230042,141.881271 831.778870,146.909180 
	C829.859436,145.587128 828.239258,144.416229 826.674988,143.174881 
	C801.657532,123.321823 775.010254,105.997375 746.168701,92.239822 
	C671.304810,56.529350 592.677734,43.777378 510.303772,53.819252 
	C456.517120,60.376167 405.919464,76.925461 358.828339,103.395226 
	C293.244690,140.259598 240.124756,190.524124 200.476959,254.733658 
	C155.043625,328.312866 132.499939,408.421936 132.275314,494.780273 
	C132.174377,533.589050 137.114700,571.840271 146.988739,609.431335 
	C164.816727,677.303589 196.436310,737.954773 242.512405,790.874573 
	C279.924927,833.844055 324.089386,868.315125 375.168213,893.750183 
	C428.704590,920.408997 485.378540,935.254700 545.107117,937.856140 
	C585.946167,939.634827 626.305847,935.604492 665.962952,925.416809 
	C718.676331,911.875061 767.182739,889.332886 811.206604,857.263855 
	C818.193298,852.174377 825.105347,846.982239 832.208923,842.294739 
	C832.418091,845.748962 832.214661,848.777588 832.579773,851.736023 
	C833.196777,856.735413 831.110168,860.009033 827.391113,863.251099 
	C796.227966,890.417419 762.518433,913.748291 725.682556,932.634216 
	C669.871338,961.248779 610.678528,978.427917 548.430115,984.703247 
	C496.339630,989.954590 444.625122,986.563049 393.488586,974.966431 
	C306.217773,955.175110 229.795486,914.898438 164.316833,853.897400 
	C112.205696,805.349854 72.407021,748.132080 45.381737,682.314026 
	C13.655853,605.047852 2.044870,524.704590 10.856546,441.515839 
	C15.855132,394.325470 27.416452,348.765839 45.629383,305.010651 
	C74.987602,234.479721 118.563828,174.019379 175.944244,123.533958 
	C224.847916,80.506721 280.195465,48.597122 341.803955,27.571455 
	C380.746307,14.281258 420.709229,5.762930 461.791199,2.682359 
	C466.211365,2.350910 470.597870,1.571573 475.000000,1.000000 
z"/>
<path fill="#F9FBFF" opacity="1.000000" stroke="none" 
	d="
M832.104126,147.027588 
	C832.230042,141.881271 832.705750,136.707336 832.302856,131.602753 
	C832.150146,129.667267 830.289246,127.537773 828.673096,126.094299 
	C777.032593,79.970718 718.212585,46.339527 652.337341,25.045149 
	C612.550598,12.183971 571.804443,4.374295 530.047363,1.916197 
	C529.221252,1.867570 528.402466,1.695397 527.290161,1.290432 
	C540.354248,1.000000 553.708435,1.000000 567.531372,1.000007 
	C568.813416,1.997944 569.529785,3.754366 570.455872,3.872915 
	C577.399902,4.761870 584.471069,4.860473 591.334656,6.120631 
	C598.804749,7.492156 606.072021,9.939401 613.471375,11.737931 
	C617.377930,12.687490 621.420044,13.081409 625.324158,14.039131 
	C629.948914,15.173632 634.478027,16.692713 639.072510,17.958128 
	C644.131470,19.351465 649.337219,20.307264 654.269104,22.048220 
	C668.026062,26.904465 681.854004,31.638264 695.306763,37.252289 
	C705.329956,41.435150 714.864014,46.814800 724.522278,51.841362 
	C735.891174,57.758228 747.356750,63.531620 758.408020,70.003181 
	C767.212524,75.159096 775.569519,81.111504 783.922424,86.997986 
	C793.588013,93.809555 803.125061,100.813141 812.539001,107.968796 
	C818.855408,112.769966 825.343811,117.512756 830.828308,123.178932 
	C834.255920,126.720093 836.497986,131.651093 836.362122,137.190201 
	C836.262695,141.245468 836.985046,145.318451 836.929688,149.377914 
	C836.869446,153.799240 836.048340,158.214035 836.047180,162.631805 
	C835.998901,343.296112 836.033264,523.960449 835.962402,704.624756 
	C835.955566,722.044189 835.048340,739.463928 835.078491,756.882629 
	C835.118225,779.802368 835.126160,802.748230 836.254761,825.628235 
	C836.759277,835.857422 836.272156,845.781677 835.268005,855.907593 
	C834.564270,863.004395 828.804077,865.306946 825.327942,869.634705 
	C822.884338,872.677124 818.395569,873.982178 815.168030,876.507874 
	C806.195007,883.529785 797.763733,891.298828 788.448120,897.814392 
	C777.138977,905.724243 765.208740,912.759277 753.422852,919.969482 
	C745.741394,924.668884 738.007141,929.338074 729.988586,933.414978 
	C721.634094,937.662659 712.877380,941.112610 704.359741,945.048218 
	C699.690796,947.205444 695.262573,949.907715 690.528931,951.895142 
	C683.556213,954.822693 676.395935,957.301147 669.338318,960.029724 
	C664.931641,961.733521 660.589478,963.604858 656.174805,965.286804 
	C653.522339,966.297424 650.834412,967.296265 648.077881,967.936340 
	C641.726746,969.411194 635.322205,970.654968 628.942749,972.008911 
	C622.669067,973.340393 616.190125,974.087097 610.174866,976.169739 
	C599.782043,979.767761 589.223389,982.002808 578.303528,983.067688 
	C567.530151,984.118286 556.519836,984.588745 546.144592,987.326599 
	C536.709473,989.816345 527.509094,988.623108 518.230042,988.894165 
	C503.909119,989.312439 489.561127,989.257141 475.235748,988.923218 
	C464.413239,988.671021 453.542847,988.192200 442.814178,986.850952 
	C432.509216,985.562744 422.368347,982.986145 412.137451,981.071594 
	C406.155762,979.952148 400.079895,979.280884 394.153015,977.937500 
	C386.888550,976.290833 379.737061,974.146790 372.533539,972.229675 
	C369.746948,971.488037 366.923492,970.872253 364.165649,970.037720 
	C355.502167,967.416016 346.804474,964.888123 338.229034,962.000183 
	C329.953308,959.213074 321.747314,956.189514 313.630066,952.968994 
	C303.910248,949.112610 294.151093,945.284973 284.723969,940.784912 
	C277.781494,937.470947 271.399384,932.999939 264.663788,929.229919 
	C260.065643,926.656372 255.125015,924.672485 250.626556,921.947754 
	C242.087250,916.775513 233.707748,911.333679 225.350677,905.868042 
	C217.209061,900.543274 208.857483,895.463562 201.180634,889.523315 
	C191.597473,882.108093 182.469467,874.080994 173.405472,866.024963 
	C164.503525,858.113037 155.658264,850.101135 147.280045,841.645691 
	C137.621841,831.898376 128.153091,821.915283 119.248672,811.482666 
	C110.566086,801.310120 102.220978,790.772034 94.616707,779.779480 
	C87.755463,769.860962 82.080101,759.120483 75.913940,748.723389 
	C71.514282,741.304932 67.040169,733.926208 62.837502,726.396729 
	C59.377350,720.197571 56.099308,713.883057 53.043327,707.475281 
	C48.988171,698.972473 45.170609,690.354187 41.377949,681.729736 
	C40.350567,679.393494 39.879898,676.818848 38.980980,674.418274 
	C37.146107,669.518250 35.068871,664.706604 33.319668,659.777588 
	C30.771873,652.598206 28.329336,645.377991 26.021694,638.118042 
	C23.959906,631.631531 22.007975,625.102905 20.266935,618.524231 
	C19.247223,614.671143 18.871510,610.651733 17.959923,606.764832 
	C16.828705,601.941467 15.358912,597.198181 14.194799,592.381775 
	C13.333881,588.819763 12.523304,585.222595 12.053236,581.594055 
	C11.221368,575.172852 11.521379,568.473328 9.781458,562.334229 
	C7.519267,554.352295 9.588936,546.095032 7.704919,538.518860 
	C4.336912,524.975220 6.765358,511.494995 6.105813,498.021484 
	C5.560503,486.881653 5.734405,475.686066 6.071346,464.529724 
	C6.371954,454.576447 7.035279,444.611389 8.092776,434.710724 
	C8.978571,426.417603 10.621247,418.202576 12.009092,409.966522 
	C13.288021,402.376862 14.313876,394.718964 16.103342,387.247314 
	C18.359184,377.828430 21.292845,368.572540 23.904711,359.238098 
	C26.683868,349.305725 29.091896,339.253082 32.309528,329.465790 
	C34.379704,323.168793 37.786968,317.323975 40.276779,311.148193 
	C42.125500,306.562561 43.193661,301.658569 45.094658,297.098602 
	C47.618156,291.045410 50.491230,285.127441 53.437832,279.263794 
	C57.099285,271.977631 60.885735,264.749451 64.811241,257.602234 
	C68.346191,251.166107 72.024178,244.801300 75.852676,238.535553 
	C80.440742,231.026703 84.947784,223.437363 90.044388,216.277557 
	C97.567902,205.708389 105.211380,195.181961 113.475525,185.193085 
	C124.621246,171.721222 135.844421,158.222229 148.126434,145.816040 
	C155.429398,138.439224 161.922333,130.038864 171.323029,124.594894 
	C175.999451,121.886757 178.789749,116.115524 183.159683,112.644447 
	C192.670380,105.090034 202.486984,97.891098 212.474777,90.974609 
	C224.229630,82.834412 236.069092,74.767502 248.304214,67.385429 
	C257.770538,61.673912 267.913574,57.086948 277.734314,51.958920 
	C284.010040,48.681973 290.120544,45.058258 296.534302,42.084198 
	C303.699677,38.761597 311.118225,35.983154 318.437958,32.995701 
	C324.609039,30.477041 330.745087,27.859726 336.992004,25.543344 
	C342.478302,23.508999 348.093994,21.822622 353.657959,19.999043 
	C359.517914,18.078453 365.330750,15.984961 371.266510,14.335056 
	C375.262756,13.224254 379.467621,12.887920 383.523193,11.960568 
	C388.664246,10.785008 393.715637,9.209641 398.867645,8.092287 
	C403.091949,7.176135 407.389252,6.524957 411.685638,6.028994 
	C418.643463,5.225806 425.635132,4.712996 432.588776,3.879899 
	C433.379089,3.785214 434.017365,2.421476 434.363068,1.323097 
	C447.354218,1.000000 460.708466,1.000000 474.531342,1.000000 
	C470.597870,1.571573 466.211365,2.350910 461.791199,2.682359 
	C420.709229,5.762930 380.746307,14.281258 341.803955,27.571455 
	C280.195465,48.597122 224.847916,80.506721 175.944244,123.533958 
	C118.563828,174.019379 74.987602,234.479721 45.629383,305.010651 
	C27.416452,348.765839 15.855132,394.325470 10.856546,441.515839 
	C2.044870,524.704590 13.655853,605.047852 45.381737,682.314026 
	C72.407021,748.132080 112.205696,805.349854 164.316833,853.897400 
	C229.795486,914.898438 306.217773,955.175110 393.488586,974.966431 
	C444.625122,986.563049 496.339630,989.954590 548.430115,984.703247 
	C610.678528,978.427917 669.871338,961.248779 725.682556,932.634216 
	C762.518433,913.748291 796.227966,890.417419 827.391113,863.251099 
	C831.110168,860.009033 833.196777,856.735413 832.579773,851.736023 
	C832.214661,848.777588 832.418091,845.748962 832.342285,841.895935 
	C832.425110,839.218872 832.624756,837.397766 832.624817,835.576660 
	C832.639038,608.034485 832.640015,380.492279 832.616760,152.950089 
	C832.616577,150.975906 832.282349,149.001755 832.104126,147.027588 
z"/>
<path fill="#283677" opacity="1.000000" stroke="none" 
	d="
M831.778870,146.909180 
	C832.282349,149.001755 832.616577,150.975906 832.616760,152.950089 
	C832.640015,380.492279 832.639038,608.034485 832.624817,835.576660 
	C832.624756,837.397766 832.425110,839.218872 832.185303,841.438782 
	C825.105347,846.982239 818.193298,852.174377 811.206604,857.263855 
	C767.182739,889.332886 718.676331,911.875061 665.962952,925.416809 
	C626.305847,935.604492 585.946167,939.634827 545.107117,937.856140 
	C485.378540,935.254700 428.704590,920.408997 375.168213,893.750183 
	C324.089386,868.315125 279.924927,833.844055 242.512405,790.874573 
	C196.436310,737.954773 164.816727,677.303589 146.988739,609.431335 
	C137.114700,571.840271 132.174377,533.589050 132.275314,494.780273 
	C132.499939,408.421936 155.043625,328.312866 200.476959,254.733658 
	C240.124756,190.524124 293.244690,140.259598 358.828339,103.395226 
	C405.919464,76.925461 456.517120,60.376167 510.303772,53.819252 
	C592.677734,43.777378 671.304810,56.529350 746.168701,92.239822 
	C775.010254,105.997375 801.657532,123.321823 826.674988,143.174881 
	C828.239258,144.416229 829.859436,145.587128 831.778870,146.909180 
M255.016876,598.492065 
	C255.016876,599.825378 255.016617,601.158752 255.016907,602.492065 
	C255.025314,642.134705 282.984833,670.071350 322.649750,670.071045 
	C380.641083,670.070557 438.632599,670.130493 496.623413,669.958557 
	C501.295959,669.944702 504.027496,671.252869 506.724365,675.166870 
	C537.968140,720.510864 595.380066,741.568665 648.396179,727.388672 
	C746.892395,701.044250 780.008789,579.995056 708.651245,506.906525 
	C706.105103,504.298615 705.085754,501.780060 705.095276,498.162781 
	C705.212708,453.503113 705.160034,408.843018 705.177856,364.183014 
	C705.186707,342.038208 696.415466,324.192169 678.859741,310.768188 
	C665.531250,300.576660 650.175171,297.327881 633.686829,298.025238 
	C627.087280,298.304382 620.465942,298.071136 613.347046,298.071136 
	C613.347046,293.256653 613.656616,289.080719 613.284119,284.966553 
	C612.448425,275.737915 605.585144,269.750641 596.552856,269.978455 
	C587.775391,270.199829 581.176270,276.943298 580.882568,286.118195 
	C580.761230,289.907715 580.862427,293.704376 580.862427,297.667664 
	C552.503784,297.667664 524.658997,297.667664 496.392609,297.667664 
	C496.392609,293.279877 496.665039,289.270569 496.338318,285.310730 
	C495.555908,275.828308 488.624054,269.693024 479.399841,269.991821 
	C470.635956,270.275696 464.142944,277.040009 463.883362,286.269135 
	C463.777039,290.049713 463.865814,293.835815 463.865814,297.795837 
	C435.519531,297.795837 407.779327,297.795837 379.380829,297.795837 
	C379.380829,293.407196 379.682281,289.257751 379.320099,285.167084 
	C378.481079,275.690216 371.498840,269.641449 362.244995,270.006073 
	C353.497040,270.350769 347.067657,277.169891 346.864075,286.407745 
	C346.781036,290.175354 346.850342,293.946320 346.850342,298.071075 
	C337.856476,298.071075 329.546967,298.032837 321.238129,298.090576 
	C318.078979,298.112518 314.873199,298.051453 311.770447,298.543823 
	C277.388214,304.000336 255.023758,330.237793 255.019684,365.029449 
	C255.010635,442.517853 255.016861,520.006287 255.016876,598.492065 
z"/>
<path fill="#FDFDFE" opacity="1.000000" stroke="none" 
	d="
M255.016876,597.993408 
	C255.016861,520.006287 255.010635,442.517853 255.019684,365.029449 
	C255.023758,330.237793 277.388214,304.000336 311.770447,298.543823 
	C314.873199,298.051453 318.078979,298.112518 321.238129,298.090576 
	C329.546967,298.032837 337.856476,298.071075 346.850342,298.071075 
	C346.850342,293.946320 346.781036,290.175354 346.864075,286.407745 
	C347.067657,277.169891 353.497040,270.350769 362.244995,270.006073 
	C371.498840,269.641449 378.481079,275.690216 379.320099,285.167084 
	C379.682281,289.257751 379.380829,293.407196 379.380829,297.795837 
	C407.779327,297.795837 435.519531,297.795837 463.865814,297.795837 
	C463.865814,293.835815 463.777039,290.049713 463.883362,286.269135 
	C464.142944,277.040009 470.635956,270.275696 479.399841,269.991821 
	C488.624054,269.693024 495.555908,275.828308 496.338318,285.310730 
	C496.665039,289.270569 496.392609,293.279877 496.392609,297.667664 
	C524.658997,297.667664 552.503784,297.667664 580.862427,297.667664 
	C580.862427,293.704376 580.761230,289.907715 580.882568,286.118195 
	C581.176270,276.943298 587.775391,270.199829 596.552856,269.978455 
	C605.585144,269.750641 612.448425,275.737915 613.284119,284.966553 
	C613.656616,289.080719 613.347046,293.256653 613.347046,298.071136 
	C620.465942,298.071136 627.087280,298.304382 633.686829,298.025238 
	C650.175171,297.327881 665.531250,300.576660 678.859741,310.768188 
	C696.415466,324.192169 705.186707,342.038208 705.177856,364.183014 
	C705.160034,408.843018 705.212708,453.503113 705.095276,498.162781 
	C705.085754,501.780060 706.105103,504.298615 708.651245,506.906525 
	C780.008789,579.995056 746.892395,701.044250 648.396179,727.388672 
	C595.380066,741.568665 537.968140,720.510864 506.724365,675.166870 
	C504.027496,671.252869 501.295959,669.944702 496.623413,669.958557 
	C438.632599,670.130493 380.641083,670.070557 322.649750,670.071045 
	C282.984833,670.071350 255.025314,642.134705 255.016907,602.492065 
	C255.016617,601.158752 255.016876,599.825378 255.016876,597.993408 
M357.499878,637.205872 
	C400.921753,637.205872 444.343658,637.205872 487.726715,637.205872 
	C474.972351,582.792053 486.945709,535.748962 529.497681,499.484375 
	C572.190063,463.100128 620.775085,459.135193 672.070923,480.102112 
	C672.070923,468.768311 672.070923,457.744781 672.070923,446.713959 
	C543.876465,446.713959 416.125763,446.713959 288.253265,446.713959 
	C288.095245,447.556824 287.874054,448.185577 287.874176,448.814270 
	C287.883087,501.464081 287.728149,554.114929 288.038483,606.763123 
	C288.138519,623.736877 302.492218,637.077576 319.511200,637.189880 
	C331.840271,637.271179 344.170258,637.205811 357.499878,637.205872 
M504.533447,330.830719 
	C501.958099,330.830719 499.382721,330.830719 496.484741,330.830719 
	C496.484741,335.332916 496.660248,338.997070 496.450775,342.639099 
	C495.893555,352.327484 488.765900,359.179993 479.739044,358.899872 
	C470.496918,358.613068 464.030029,351.688049 463.867950,341.846008 
	C463.809052,338.268890 463.858459,334.689941 463.858459,331.245056 
	C435.288605,331.245056 407.563080,331.245056 379.496460,331.245056 
	C379.496460,335.311035 379.673553,338.975403 379.462189,342.617218 
	C378.898712,352.326691 371.788452,359.170074 362.747589,358.900543 
	C353.497467,358.624786 346.997894,351.680603 346.855164,341.869446 
	C346.803040,338.287384 346.846802,334.703949 346.846802,331.073578 
	C336.051117,331.073578 326.029999,330.507599 316.098114,331.207550 
	C301.572449,332.231262 288.714447,344.914642 288.183075,359.277069 
	C287.524658,377.074188 288.029846,394.914459 288.059509,412.736053 
	C288.059937,412.992645 288.412415,413.248657 288.688568,413.624756 
	C416.363007,413.624756 544.113831,413.624756 671.856201,413.624756 
	C672.105042,412.976379 672.434265,412.520477 672.432312,412.065979 
	C672.358154,394.576599 672.687622,377.070648 672.014832,359.603455 
	C671.482361,345.780945 660.228333,333.149445 646.451477,331.555939 
	C635.816711,330.325867 624.925720,331.310577 613.306519,331.310577 
	C613.306519,335.613556 613.643494,339.919891 613.236389,344.154724 
	C612.387878,352.981659 605.237610,359.174103 596.715820,358.899139 
	C587.860840,358.613373 581.183899,351.882385 580.884888,342.810181 
	C580.760010,339.021484 580.864136,335.225250 580.864136,330.830719 
	C555.399475,330.830719 530.461548,330.830719 504.533447,330.830719 
M712.116943,619.570007 
	C712.455200,608.320679 714.165588,596.913574 712.893372,585.849426 
	C707.492737,538.880859 665.321045,501.328674 618.109680,500.470764 
	C554.615234,499.316895 507.385223,553.307617 516.931702,616.131531 
	C524.997131,669.208801 578.364807,707.629700 631.058167,697.483521 
	C674.206970,689.175171 701.095886,662.973267 712.116943,619.570007 
z"/>
<path fill="#293777" opacity="1.000000" stroke="none" 
	d="
M356.999878,637.205872 
	C344.170258,637.205811 331.840271,637.271179 319.511200,637.189880 
	C302.492218,637.077576 288.138519,623.736877 288.038483,606.763123 
	C287.728149,554.114929 287.883087,501.464081 287.874176,448.814270 
	C287.874054,448.185577 288.095245,447.556824 288.253265,446.713959 
	C416.125763,446.713959 543.876465,446.713959 672.070923,446.713959 
	C672.070923,457.744781 672.070923,468.768311 672.070923,480.102112 
	C620.775085,459.135193 572.190063,463.100128 529.497681,499.484375 
	C486.945709,535.748962 474.972351,582.792053 487.726715,637.205872 
	C444.343658,637.205872 400.921753,637.205872 356.999878,637.205872 
z"/>
<path fill="#2A3878" opacity="1.000000" stroke="none" 
	d="
M505.028534,330.830719 
	C530.461548,330.830719 555.399475,330.830719 580.864136,330.830719 
	C580.864136,335.225250 580.760010,339.021484 580.884888,342.810181 
	C581.183899,351.882385 587.860840,358.613373 596.715820,358.899139 
	C605.237610,359.174103 612.387878,352.981659 613.236389,344.154724 
	C613.643494,339.919891 613.306519,335.613556 613.306519,331.310577 
	C624.925720,331.310577 635.816711,330.325867 646.451477,331.555939 
	C660.228333,333.149445 671.482361,345.780945 672.014832,359.603455 
	C672.687622,377.070648 672.358154,394.576599 672.432312,412.065979 
	C672.434265,412.520477 672.105042,412.976379 671.856201,413.624756 
	C544.113831,413.624756 416.363007,413.624756 288.688568,413.624756 
	C288.412415,413.248657 288.059937,412.992645 288.059509,412.736053 
	C288.029846,394.914459 287.524658,377.074188 288.183075,359.277069 
	C288.714447,344.914642 301.572449,332.231262 316.098114,331.207550 
	C326.029999,330.507599 336.051117,331.073578 346.846802,331.073578 
	C346.846802,334.703949 346.803040,338.287384 346.855164,341.869446 
	C346.997894,351.680603 353.497467,358.624786 362.747589,358.900543 
	C371.788452,359.170074 378.898712,352.326691 379.462189,342.617218 
	C379.673553,338.975403 379.496460,335.311035 379.496460,331.245056 
	C407.563080,331.245056 435.288605,331.245056 463.858459,331.245056 
	C463.858459,334.689941 463.809052,338.268890 463.867950,341.846008 
	C464.030029,351.688049 470.496918,358.613068 479.739044,358.899872 
	C488.765900,359.179993 495.893555,352.327484 496.450775,342.639099 
	C496.660248,338.997070 496.484741,335.332916 496.484741,330.830719 
	C499.382721,330.830719 501.958099,330.830719 505.028534,330.830719 
z"/>
<path fill="#293777" opacity="1.000000" stroke="none" 
	d="
M712.071777,619.990540 
	C701.095886,662.973267 674.206970,689.175171 631.058167,697.483521 
	C578.364807,707.629700 524.997131,669.208801 516.931702,616.131531 
	C507.385223,553.307617 554.615234,499.316895 618.109680,500.470764 
	C665.321045,501.328674 707.492737,538.880859 712.893372,585.849426 
	C714.165588,596.913574 712.455200,608.320679 712.071777,619.990540 
M598.514587,598.345703 
	C598.209717,604.459045 600.887207,609.189880 605.157898,613.332397 
	C612.804993,620.749939 620.303284,628.320801 627.909424,635.781006 
	C634.991211,642.726868 645.023682,643.104736 651.594421,636.746155 
	C658.337402,630.220825 658.126465,620.025574 650.972656,612.684143 
	C645.512024,607.080139 639.719482,601.784546 634.494873,595.973877 
	C632.724182,594.004639 631.362549,590.896606 631.311340,588.279663 
	C631.014709,573.134277 631.274658,557.979126 631.127014,542.829346 
	C631.027893,532.656494 623.789185,525.736267 614.044983,526.082703 
	C605.009460,526.404053 598.618103,533.384521 598.553223,543.438049 
	C598.437195,561.418945 598.517273,579.401123 598.514587,598.345703 
z"/>
<path fill="#FDFEFE" opacity="1.000000" stroke="none" 
	d="
M598.515015,597.864258 
	C598.517273,579.401123 598.437195,561.418945 598.553223,543.438049 
	C598.618103,533.384521 605.009460,526.404053 614.044983,526.082703 
	C623.789185,525.736267 631.027893,532.656494 631.127014,542.829346 
	C631.274658,557.979126 631.014709,573.134277 631.311340,588.279663 
	C631.362549,590.896606 632.724182,594.004639 634.494873,595.973877 
	C639.719482,601.784546 645.512024,607.080139 650.972656,612.684143 
	C658.126465,620.025574 658.337402,630.220825 651.594421,636.746155 
	C645.023682,643.104736 634.991211,642.726868 627.909424,635.781006 
	C620.303284,628.320801 612.804993,620.749939 605.157898,613.332397 
	C600.887207,609.189880 598.209717,604.459045 598.515015,597.864258 
z"/>
</svg>